{
  "accessors": [
    {
      "bufferView": 2,
      "componentType": 5126,
      "count": 65532,
      "max": [
        1.0678750276565552,
        1.636659026145935,
        4.155947208404541
      ],
      "min": [
        -1.7259880304336548,
        -1.1139789819717407,
        -0.007007000036537647
      ],
      "type": "VEC3"
    },
    {
      "bufferView": 2,
      "byteOffset": 786384,
      "componentType": 5126,
      "count": 65532,
      "max": [
        0.9999189376831055,
        0.9997705817222595,
        0.9999420642852783
      ],
      "min": [
        -0.9999759197235107,
        -0.9999709129333496,
        -0.9999998807907104
      ],
      "type": "VEC3"
    },
    {
      "bufferView": 1,
      "componentType": 5126,
      "count": 65532,
      "max": [
        0.9960399866104126,
        0.9893100261688232
      ],
      "min": [
        0.0019499999471008778,
        0.0019499999471008778
      ],
      "type": "VEC2"
    },
    {
      "bufferView": 0,
      "componentType": 5125,
      "count": 351486,
      "type": "SCALAR"
    },
    {
      "bufferView": 2,
      "byteOffset": 1572768,
      "componentType": 5126,
      "count": 65532,
      "max": [
        1.1939879655838013,
        1.6342769861221313,
        4.181379795074463
      ],
      "min": [
        -1.7248460054397583,
        -1.1054680347442627,
        0.004188999999314547
      ],
      "type": "VEC3"
    },
    {
      "bufferView": 2,
      "byteOffset": 2359152,
      "componentType": 5126,
      "count": 65532,
      "max": [
        0.999950647354126,
        0.9999476671218872,
        0.9998036026954651
      ],
      "min": [
        -0.9999971389770508,
        -0.999970555305481,
        -0.9999762773513794
      ],
      "type": "VEC3"
    },
    {
      "bufferView": 1,
      "byteOffset": 524256,
      "componentType": 5126,
      "count": 65532,
      "max": [
        0.9980400204658508,
        0.9935399889945984
      ],
      "min": [
        0.0019499999471008778,
        0.0019499999471008778
      ],
      "type": "VEC2"
    },
    {
      "bufferView": 0,
      "byteOffset": 1405944,
      "componentType": 5125,
      "count": 332460,
      "type": "SCALAR"
    },
    {
      "bufferView": 2,
      "byteOffset": 3145536,
      "componentType": 5126,
      "count": 32205,
      "max": [
        1.1939879655838013,
        1.328713059425354,
        4.181379795074463
      ],
      "min": [
        -1.4003130197525024,
        -1.1027309894561768,
        -0.0044570001773536205
      ],
      "type": "VEC3"
    },
    {
      "bufferView": 2,
      "byteOffset": 3531996,
      "componentType": 5126,
      "count": 32205,
      "max": [
        0.999950647354126,
        0.9999873638153076,
        0.998581051826477
      ],
      "min": [
        -0.9999990463256836,
        -0.9999525547027588,
        -0.9999991655349731
      ],
      "type": "VEC3"
    },
    {
      "bufferView": 1,
      "byteOffset": 1048512,
      "componentType": 5126,
      "count": 32205,
      "max": [
        0.9968600273132324,
        0.9828100204467773
      ],
      "min": [
        0.0019499999471008778,
        0.0019499999471008778
      ],
      "type": "VEC2"
    },
    {
      "bufferView": 0,
      "byteOffset": 2735784,
      "componentType": 5125,
      "count": 110178,
      "type": "SCALAR"
    }
  ],
  "asset": {
    "extras": {
      "author": "Virtual Museums of Małopolska (https://sketchfab.com/WirtualneMuzeaMalopolski)",
      "license": "CC-BY-4.0 (http://creativecommons.org/licenses/by/4.0/)",
      "source": "https://sketchfab.com/3d-models/the-bust-of-napoleon-bonaparte-a177bf0e121641bea6cf1d58ad3efc5b",
      "title": "The bust of Napoleon Bonaparte"
    },
    "generator": "Sketchfab-12.68.0",
    "version": "2.0"
  },
  "bufferViews": [
    {
      "buffer": 0,
      "byteLength": 3176496,
      "name": "floatBufferViews",
      "target": 34963
    },
    {
      "buffer": 0,
      "byteLength": 1306152,
      "byteOffset": 3176496,
      "byteStride": 8,
      "name": "floatBufferViews",
      "target": 34962
    },
    {
      "buffer": 0,
      "byteLength": 3918456,
      "byteOffset": 4482648,
      "byteStride": 12,
      "name": "floatBufferViews",
      "target": 34962
    }
  ],
  "buffers": [
    {
      "byteLength": 8401104,
      "uri": "scene.bin"
    }
  ],
  "images": [
    {
      "uri": "textures/MAT_Nap_baseColor.jpeg"
    },
    {
      "uri": "textures/MAT_Nap_metallicRoughness.png"
    }
  ],
  "materials": [
    {
      "doubleSided": true,
      "name": "MAT_Nap",
      "occlusionTexture": {
        "index": 1
      },
      "pbrMetallicRoughness": {
        "baseColorTexture": {
          "index": 0
        },
        "metallicFactor": 0.11091757520471289,
        "metallicRoughnessTexture": {
          "index": 1
        }
      }
    }
  ],
  "meshes": [
    {
      "name": "Object_0",
      "primitives": [
        {
          "attributes": {
            "NORMAL": 1,
            "POSITION": 0,
            "TEXCOORD_0": 2
          },
          "indices": 3,
          "material": 0,
          "mode": 4
        }
      ]
    },
    {
      "name": "Object_1",
      "primitives": [
        {
          "attributes": {
            "NORMAL": 5,
            "POSITION": 4,
            "TEXCOORD_0": 6
          },
          "indices": 7,
          "material": 0,
          "mode": 4
        }
      ]
    },
    {
      "name": "Object_2",
      "primitives": [
        {
          "attributes": {
            "NORMAL": 9,
            "POSITION": 8,
            "TEXCOORD_0": 10
          },
          "indices": 11,
          "material": 0,
          "mode": 4
        }
      ]
    }
  ],
  "nodes": [
    {
      "children": [
        1
      ],
      "matrix": [
        0.11607525497674942,
        0.0,
        0.0,
        0.0,
        0.0,
        2.57738841328846e-17,
        -0.11607525497674942,
        0.0,
        0.0,
        0.11607525497674942,
        2.57738841328846e-17,
        0.0,
        0.0,
        0.0,
        0.0,
        1.0
      ],
      "name": "Sketchfab_model"
    },
    {
      "children": [
        2,
        3,
        4
      ],
      "name": "3D_MNK_A_810_Popiersie_Napoleona.obj.cleaner.materialmerger.gles"
    },
    {
      "mesh": 0,
      "name": "Object_2"
    },
    {
      "mesh": 1,
      "name": "Object_3"
    },
    {
      "mesh": 2,
      "name": "Object_4"
    }
  ],
  "samplers": [
    {
      "magFilter": 9729,
      "minFilter": 9987,
      "wrapS": 10497,
      "wrapT": 10497
    }
  ],
  "scene": 0,
  "scenes": [
    {
      "name": "Sketchfab_Scene",
      "nodes": [
        0
      ]
    }
  ],
  "textures": [
    {
      "sampler": 0,
      "source": 0
    },
    {
      "sampler": 0,
      "source": 1
    }
  ]
}
