{
  "accessors": [
    {
      "bufferView": 2,
      "componentType": 5126,
      "count": 65532,
      "max": [
        2.7993669509887695,
        4.112142086029053,
        2.2802650928497314
      ],
      "min": [
        -2.040937900543213,
        -1.7937699556350708,
        1.0
      ],
      "type": "VEC3"
    },
    {
      "bufferView": 2,
      "byteOffset": 786384,
      "componentType": 5126,
      "count": 65532,
      "max": [
        0.9999995231628418,
        1.0,
        0.9999998807907104
      ],
      "min": [
        -0.9999984502792358,
        -0.9999972581863403,
        -0.9433794617652893
      ],
      "type": "VEC3"
    },
    {
      "bufferView": 1,
      "componentType": 5126,
      "count": 65532,
      "max": [
        0.999180018901825,
        0.9997559785842896
      ],
      "min": [
        0.004149999935179949,
        0.0003800000122282654
      ],
      "type": "VEC2"
    },
    {
      "bufferView": 0,
      "componentType": 5125,
      "count": 340890,
      "type": "SCALAR"
    },
    {
      "bufferView": 2,
      "byteOffset": 1572768,
      "componentType": 5126,
      "count": 46549,
      "max": [
        2.800806999206543,
        4.114099979400635,
        2.2528820037841797
      ],
      "min": [
        -1.131885051727295,
        -1.7444510459899902,
        1.0
      ],
      "type": "VEC3"
    },
    {
      "bufferView": 2,
      "byteOffset": 2131356,
      "componentType": 5126,
      "count": 46549,
      "max": [
        0.9999982118606567,
        0.9999988079071045,
        1.0
      ],
      "min": [
        -0.9987746477127075,
        -0.9999973773956299,
        -0.9996022582054138
      ],
      "type": "VEC3"
    },
    {
      "bufferView": 1,
      "byteOffset": 524256,
      "componentType": 5126,
      "count": 46549,
      "max": [
        0.9996110200881958,
        0.9997559785842896
      ],
      "min": [
        0.00024399999529123306,
        0.0003870000073220581
      ],
      "type": "VEC2"
    },
    {
      "bufferView": 0,
      "byteOffset": 1363560,
      "componentType": 5125,
      "count": 205281,
      "type": "SCALAR"
    },
    {
      "bufferView": 2,
      "byteOffset": 2689944,
      "componentType": 5126,
      "count": 2975,
      "max": [
        2.777614116668701,
        4.095461845397949,
        1.0
      ],
      "min": [
        -2.040937900543213,
        -1.7645859718322754,
        1.0
      ],
      "type": "VEC3"
    },
    {
      "bufferView": 2,
      "byteOffset": 2725644,
      "componentType": 5126,
      "count": 2975,
      "max": [
        0.21438851952552795,
        0.07840030640363693,
        -0.9767477512359619
      ],
      "min": [
        -0.025699205696582794,
        -0.0900033488869667,
        -1.0
      ],
      "type": "VEC3"
    },
    {
      "bufferView": 1,
      "byteOffset": 896648,
      "componentType": 5126,
      "count": 2975,
      "max": [
        0.7924069762229919,
        0.6539009809494019
      ],
      "min": [
        0.692287027835846,
        0.5579239726066589
      ],
      "type": "VEC2"
    },
    {
      "bufferView": 0,
      "byteOffset": 2184684,
      "componentType": 5125,
      "count": 4782,
      "type": "SCALAR"
    },
    {
      "bufferView": 2,
      "byteOffset": 2761344,
      "componentType": 5126,
      "count": 65532,
      "max": [
        1.7986539602279663,
        3.579303026199341,
        8.86246395111084
      ],
      "min": [
        -2.0658791065216064,
        -1.8800009489059448,
        2.7811648845672607
      ],
      "type": "VEC3"
    },
    {
      "bufferView": 2,
      "byteOffset": 3547728,
      "componentType": 5126,
      "count": 65532,
      "max": [
        0.9999841451644897,
        0.9997504353523254,
        0.9999490976333618
      ],
      "min": [
        -0.9999879598617554,
        -0.999894380569458,
        -0.999756395816803
      ],
      "type": "VEC3"
    },
    {
      "bufferView": 1,
      "byteOffset": 920448,
      "componentType": 5126,
      "count": 65532,
      "max": [
        0.9994829893112183,
        0.9997559785842896
      ],
      "min": [
        0.0,
        0.0
      ],
      "type": "VEC2"
    },
    {
      "bufferView": 0,
      "byteOffset": 2203812,
      "componentType": 5125,
      "count": 333999,
      "type": "SCALAR"
    },
    {
      "bufferView": 2,
      "byteOffset": 4334112,
      "componentType": 5126,
      "count": 65532,
      "max": [
        1.565201997756958,
        2.8548150062561035,
        8.848525047302246
      ],
      "min": [
        -1.337725043296814,
        -1.879755973815918,
        2.0000998973846436
      ],
      "type": "VEC3"
    },
    {
      "bufferView": 2,
      "byteOffset": 5120496,
      "componentType": 5126,
      "count": 65532,
      "max": [
        0.9999918937683105,
        0.9999254941940308,
        0.9999923706054688
      ],
      "min": [
        -0.9999289512634277,
        -0.9999696016311646,
        -0.9999873638153076
      ],
      "type": "VEC3"
    },
    {
      "bufferView": 1,
      "byteOffset": 1444704,
      "componentType": 5126,
      "count": 65532,
      "max": [
        0.9996100068092346,
        0.9997559785842896
      ],
      "min": [
        0.00024399999529123306,
        0.00037200000951997936
      ],
      "type": "VEC2"
    },
    {
      "bufferView": 0,
      "byteOffset": 3539808,
      "componentType": 5125,
      "count": 301002,
      "type": "SCALAR"
    },
    {
      "bufferView": 2,
      "byteOffset": 5906880,
      "componentType": 5126,
      "count": 65532,
      "max": [
        1.5263580083847046,
        3.668030023574829,
        7.68207311630249
      ],
      "min": [
        -1.293144941329956,
        -1.2633579969406128,
        2.0199239253997803
      ],
      "type": "VEC3"
    },
    {
      "bufferView": 2,
      "byteOffset": 6693264,
      "componentType": 5126,
      "count": 65532,
      "max": [
        0.9999912977218628,
        0.9999862909317017,
        0.9999735355377197
      ],
      "min": [
        -0.999689519405365,
        -0.9997861981391907,
        -0.999990701675415
      ],
      "type": "VEC3"
    },
    {
      "bufferView": 1,
      "byteOffset": 1968960,
      "componentType": 5126,
      "count": 65532,
      "max": [
        0.999550998210907,
        0.9997559785842896
      ],
      "min": [
        0.00024399999529123306,
        0.0003769999893847853
      ],
      "type": "VEC2"
    },
    {
      "bufferView": 0,
      "byteOffset": 4743816,
      "componentType": 5125,
      "count": 290037,
      "type": "SCALAR"
    },
    {
      "bufferView": 2,
      "byteOffset": 7479648,
      "componentType": 5126,
      "count": 65532,
      "max": [
        1.5658880472183228,
        3.4173219203948975,
        9.066255569458008
      ],
      "min": [
        -1.3384909629821777,
        -1.2599740028381348,
        1.6238640546798706
      ],
      "type": "VEC3"
    },
    {
      "bufferView": 2,
      "byteOffset": 8266032,
      "componentType": 5126,
      "count": 65532,
      "max": [
        0.9999295473098755,
        0.9999947547912598,
        0.9999970197677612
      ],
      "min": [
        -0.9999432563781738,
        -0.9999717473983765,
        -0.9995265603065491
      ],
      "type": "VEC3"
    },
    {
      "bufferView": 1,
      "byteOffset": 2493216,
      "componentType": 5126,
      "count": 65532,
      "max": [
        0.9996079802513123,
        0.9997559785842896
      ],
      "min": [
        0.00024399999529123306,
        0.00037799999699927866
      ],
      "type": "VEC2"
    },
    {
      "bufferView": 0,
      "byteOffset": 5903964,
      "componentType": 5125,
      "count": 272751,
      "type": "SCALAR"
    },
    {
      "bufferView": 2,
      "byteOffset": 9052416,
      "componentType": 5126,
      "count": 11561,
      "max": [
        1.1004739999771118,
        2.4241960048675537,
        7.624489784240723
      ],
      "min": [
        -1.1654549837112427,
        -1.248872995376587,
        1.6159240007400513
      ],
      "type": "VEC3"
    },
    {
      "bufferView": 2,
      "byteOffset": 9191148,
      "componentType": 5126,
      "count": 11561,
      "max": [
        0.9999371767044067,
        0.9997879862785339,
        0.9996530413627625
      ],
      "min": [
        -0.9917119145393372,
        -0.99934321641922,
        -0.9999735355377197
      ],
      "type": "VEC3"
    },
    {
      "bufferView": 1,
      "byteOffset": 3017472,
      "componentType": 5126,
      "count": 11561,
      "max": [
        0.9964450001716614,
        0.9997559785842896
      ],
      "min": [
        0.00024399999529123306,
        0.00039000000106170774
      ],
      "type": "VEC2"
    },
    {
      "bufferView": 0,
      "byteOffset": 6994968,
      "componentType": 5125,
      "count": 33708,
      "type": "SCALAR"
    }
  ],
  "asset": {
    "extras": {
      "author": "noe-3d.at (https://sketchfab.com/www.noe-3d.at)",
      "license": "CC-BY-NC-4.0 (http://creativecommons.org/licenses/by-nc/4.0/)",
      "source": "https://sketchfab.com/3d-models/kaiser-franz-joseph-i-9050aac1946b434fa90c32aea0ac07ea",
      "title": "Kaiser Franz Joseph I."
    },
    "generator": "Sketchfab-12.64.0",
    "version": "2.0"
  },
  "bufferViews": [
    {
      "buffer": 0,
      "byteLength": 7129800,
      "name": "floatBufferViews",
      "target": 34963
    },
    {
      "buffer": 0,
      "byteLength": 3109960,
      "byteOffset": 7129800,
      "byteStride": 8,
      "name": "floatBufferViews",
      "target": 34962
    },
    {
      "buffer": 0,
      "byteLength": 9329880,
      "byteOffset": 10239760,
      "byteStride": 12,
      "name": "floatBufferViews",
      "target": 34962
    }
  ],
  "buffers": [
    {
      "byteLength": 19569640,
      "uri": "scene.bin"
    }
  ],
  "images": [
    {
      "uri": "textures/Kaiser_O_Material_u1_v1_baseColor.png"
    }
  ],
  "materials": [
    {
      "doubleSided": true,
      "name": "Kaiser_O_Material_u1_v1",
      "pbrMetallicRoughness": {
        "baseColorTexture": {
          "index": 0
        },
        "metallicFactor": 0.0
      }
    },
    {
      "doubleSided": true,
      "name": "bottom",
      "pbrMetallicRoughness": {
        "baseColorFactor": [
          0.207916,
          0.207916,
          0.207916,
          1.0
        ],
        "metallicFactor": 0.0
      }
    },
    {
      "doubleSided": true,
      "name": "gold",
      "pbrMetallicRoughness": {
        "baseColorTexture": {
          "index": 0
        },
        "metallicFactor": 0.475963555442059,
        "roughnessFactor": 0.5240364445579411
      }
    }
  ],
  "meshes": [
    {
      "name": "Object_0",
      "primitives": [
        {
          "attributes": {
            "NORMAL": 1,
            "POSITION": 0,
            "TEXCOORD_0": 2
          },
          "indices": 3,
          "material": 0,
          "mode": 4
        }
      ]
    },
    {
      "name": "Object_1",
      "primitives": [
        {
          "attributes": {
            "NORMAL": 5,
            "POSITION": 4,
            "TEXCOORD_0": 6
          },
          "indices": 7,
          "material": 0,
          "mode": 4
        }
      ]
    },
    {
      "name": "Object_2",
      "primitives": [
        {
          "attributes": {
            "NORMAL": 9,
            "POSITION": 8,
            "TEXCOORD_0": 10
          },
          "indices": 11,
          "material": 1,
          "mode": 4
        }
      ]
    },
    {
      "name": "Object_3",
      "primitives": [
        {
          "attributes": {
            "NORMAL": 13,
            "POSITION": 12,
            "TEXCOORD_0": 14
          },
          "indices": 15,
          "material": 2,
          "mode": 4
        }
      ]
    },
    {
      "name": "Object_4",
      "primitives": [
        {
          "attributes": {
            "NORMAL": 17,
            "POSITION": 16,
            "TEXCOORD_0": 18
          },
          "indices": 19,
          "material": 2,
          "mode": 4
        }
      ]
    },
    {
      "name": "Object_5",
      "primitives": [
        {
          "attributes": {
            "NORMAL": 21,
            "POSITION": 20,
            "TEXCOORD_0": 22
          },
          "indices": 23,
          "material": 2,
          "mode": 4
        }
      ]
    },
    {
      "name": "Object_6",
      "primitives": [
        {
          "attributes": {
            "NORMAL": 25,
            "POSITION": 24,
            "TEXCOORD_0": 26
          },
          "indices": 27,
          "material": 2,
          "mode": 4
        }
      ]
    },
    {
      "name": "Object_7",
      "primitives": [
        {
          "attributes": {
            "NORMAL": 29,
            "POSITION": 28,
            "TEXCOORD_0": 30
          },
          "indices": 31,
          "material": 2,
          "mode": 4
        }
      ]
    }
  ],
  "nodes": [
    {
      "children": [
        1
      ],
      "matrix": [
        -0.0013471122223616544,
        -2.4732861691910696e-17,
        0.11138690669949503,
        0.0,
        0.11138690669949503,
        -2.991190012039745e-19,
        0.0013471122223616544,
        0.0,
        0.0,
        0.11139505356550217,
        2.473467065955463e-17,
        0.0,
        -0.7450600862503052,
        3.326217386342056e-16,
        -1.497995138168335,
        1.0
      ],
      "name": "Sketchfab_model"
    },
    {
      "children": [
        2,
        3,
        4,
        5,
        6,
        7,
        8,
        9
      ],
      "name": "Kaiser_CN.obj.cleaner.materialmerger.gles"
    },
    {
      "mesh": 0,
      "name": "Object_2"
    },
    {
      "mesh": 1,
      "name": "Object_3"
    },
    {
      "mesh": 2,
      "name": "Object_4"
    },
    {
      "mesh": 3,
      "name": "Object_5"
    },
    {
      "mesh": 4,
      "name": "Object_6"
    },
    {
      "mesh": 5,
      "name": "Object_7"
    },
    {
      "mesh": 6,
      "name": "Object_8"
    },
    {
      "mesh": 7,
      "name": "Object_9"
    }
  ],
  "samplers": [
    {
      "magFilter": 9729,
      "minFilter": 9987,
      "wrapS": 10497,
      "wrapT": 10497
    }
  ],
  "scene": 0,
  "scenes": [
    {
      "name": "Sketchfab_Scene",
      "nodes": [
        0
      ]
    }
  ],
  "textures": [
    {
      "sampler": 0,
      "source": 0
    }
  ]
}
